<svg xmlns="http://www.w3.org/2000/svg" viewBox="0 0 980 980" fill="none" shape-rendering="auto"><metadata xmlns:rdf="http://www.w3.org/1999/02/22-rdf-syntax-ns#" xmlns:xsi="http://www.w3.org/2001/XMLSchema-instance" xmlns:dc="http://purl.org/dc/elements/1.1/" xmlns:dcterms="http://purl.org/dc/terms/"><rdf:RDF><rdf:Description><dc:title>Lorelei</dc:title><dc:creator>Lisa Wischofsky</dc:creator><dc:source xsi:type="dcterms:URI">https://www.figma.com/community/file/1198749693280469639</dc:source><dcterms:license xsi:type="dcterms:URI">https://creativecommons.org/publicdomain/zero/1.0/</dcterms:license><dc:rights>Remix of „Lorelei” (https://www.figma.com/community/file/1198749693280469639) by „Lisa Wischofsky”, licensed under „CC0 1.0” (https://creativecommons.org/publicdomain/zero/1.0/)</dc:rights></rdf:Description></rdf:RDF></metadata><mask id="viewboxMask"><rect width="980" height="980" rx="490" ry="490" x="0" y="0" fill="#fff" /></mask><g mask="url(#viewboxMask)"><rect fill="#f9a8d4" width="980" height="980" x="0" y="0" /><g transform="translate(10 -60)"><path d="M441 200c18 0 35 3 52 8 8 2 15 4 22 9 13-12 32-14 48-10 10 2 18 7 25 13 8 7 18 13 22 23 11-1 23-1 33 3 9 5 17 13 24 21 5 8 9 17 8 27l21 3h11c2 1 4 3 4 6 0 6-1 13-3 19-5 14-14 25-26 34-16 12-36 18-56 20-25 3-51 2-75-5l12 20c2 2 3 5 0 7-1 2-3 2-5 2l-30-6c-23-8-45-18-67-30-12-7-23-12-33-22 0 6-1 12-3 17-1 3-4 5-6 3-4-3-9-5-12-9a98 98 0 0 0-44-22c3 3 6 5 7 9l-13 10-20 11c-7 4-13 8-19 14l-7 8c-1 5-2 11-1 16 1 12 5 22 9 33 0 4 2 7-1 10l-7 10c-4 5-7 10-8 16-3 13 0 28 3 41l10 36 3 9c7 4 16 9 19 17-9 0-16-3-24-6 9 6 19 13 25 22 3 3 5 6 6 10l-13-5c-9-4-16-10-24-15l-7-2-29-5-17-5-8-9c-5-4-8-9-10-15-4-9-9-19-10-30l-4-23a332 332 0 0 1 9-104c3-13 9-24 14-36 7-16 17-31 30-44l15-10c0-9 4-16 10-22 9-10 21-19 34-24 12-5 25-9 39-9 4-12 12-22 22-28 14-9 29-11 45-11Z" fill="#000000"/><path d="M313 585c5 1 9 5 12 8 4 3 8 8 10 13-5-2-10-6-14-9-4-2-8-4-10-8-2-2 0-4 2-4Z" fill="#000000"/><path d="M528 244c41 6 80 22 113 47 28 21 50 49 65 81 13 28 20 60 19 91-1 15-3 30-8 44h-2l1-21c1-30-2-59-13-87-10-30-28-57-50-79-42-40-98-62-156-63a243 243 0 0 0-196 94 207 207 0 0 0-40 139l2 25c8 0 19 0 25 7l-3 3-17 1c-12 1-24 5-33 13a64 64 0 0 0-17 39c-5 32 12 65 39 83 16 10 36 15 55 9 4-2 9-5 14-3 3 1 4 4 5 7a251 251 0 0 0 90 100c8 7 18 13 28 18 18 8 38 14 57 19l32 8c5 1 9 1 13 3l-4 1c-25 2-48-3-72-10-12-3-23-7-34-12a306 306 0 0 1-84-63l2 28c1 17 0 35-6 52-4 12-11 24-19 34-10 10-22 19-34 26-10 7-21 14-32 18l-16 5 9-9 31-20 22-17a95 95 0 0 0 32-56c2-14 2-28 2-43v-27c-10-14-22-29-27-46-17 8-38 7-55-1-17-7-32-19-43-33-12-17-19-36-21-56s2-40 15-56c9-10 22-18 35-21-4-14-6-29-6-44a234 234 0 0 1 83-173 249 249 0 0 1 199-55Z" fill="#000"/><path d="M653 320c22 22 40 49 50 79 11 28 14 57 13 87l-1 21-5 15-2 13 2 56c0 21 1 42-1 63l-3 47c-2 16-7 31-14 45-11 18-26 33-44 44-13 8-27 12-41 16l-38 11-17 3c0 1 1 2 3 2 8 5 17 5 26 4-3 7-4 14-2 22 3 7 11 11 17 14 12 6 24 7 36 9 7 6 14 14 16 24 2 8 2 16-2 23-5 10-14 18-24 23-13 8-27 14-42 18a468 468 0 0 1-222-1c-17-4-33-9-48-17-12-6-23-13-32-22-5-7-9-14-10-23 11-4 22-11 32-18 12-7 24-16 34-26 8-10 15-22 19-34 6-17 7-35 6-52l-2-28 22 23c19 15 40 30 62 40 11 5 22 9 34 12 24 7 47 12 72 10l4-1c-4-2-8-2-13-3l-32-8c-19-5-39-11-57-19l-29-17c-11-9-23-17-33-27a251 251 0 0 1-56-74c-1-3-2-6-5-7-5-2-10 1-14 3-19 6-39 1-55-9a88 88 0 0 1-39-83c1-14 7-28 17-39 9-8 21-12 33-13l17-1 3-3c-6-7-17-7-25-7l-2-25a207 207 0 0 1 40-139 243 243 0 0 1 196-94c58 1 114 23 156 63Z" fill="#ffffff"/><path d="M710 522c3 0 3 4 4 6 3 11 4 23 5 34l2 21c1 22 2 43 1 65-1 21-1 44-5 65a136 136 0 0 1-80 99c-15 7-31 11-48 13v15c1 3 3 4 5 6 12 6 23 8 36 11 12 3 24 5 36 11-3 3-7 4-11 4-7 1-15-1-23-1-12-2-24-3-36-9-6-3-14-7-17-14-2-8-1-15 2-22-9 1-18 1-26-4-2 0-3-1-3-2l17-3 38-11c14-4 28-8 41-16 18-11 33-26 44-44 7-14 12-29 14-45l3-47c2-21 1-42 1-63l-2-56 2-13ZM252 549c8 0 17 1 23 7 5 4 10 9 12 15 1 3 0 6-2 8l-13 8c-7 6-7 19 0 25 6 5 14 8 21 11 2 0 5 1 6 3-1 2-3 3-5 3-10 0-20-3-28-9-5-3-8-8-9-13-2-8-2-17 4-24 4-6 11-9 18-12-4-5-7-11-14-13-7-3-15-3-22-5l9-4Z" fill="#000"/><path d="M681 473c6 2 13 7 15 14 2 4 1 9-3 12-5 2-10 0-12-4-3-3-7-7-12-8-4-1-9 0-13 2l4 5c4 6 5 14 5 21s-2 14-4 20c3-1 6-4 10-4 0 4 0 7-2 10-5 6-13 10-21 11s-17 2-24-3c-5-3-5-8-5-13l-2-6c0-10 4-19 9-27 7-11 17-20 29-26 8-4 17-6 26-4ZM473 519c14 2 28 6 42 11 3 1 6 1 8 4 4 3 4 9 0 12-3 2-7 2-11 2h-45c-13 0-28 1-41-1l-7-3-14 2c-2 0-5 0-6-2-3-2-2-6 0-8s6-3 9-4c9-2 18-4 27-4l9-1-16-1c-6-1-13 0-19-2-2 0-3-1-3-3s2-2 3-3l15-2c16-1 33 0 49 3Z" fill="#000000"/><path d="M494 368c5 0 9 3 11 7 8 8 15 18 20 28 2 5 4 10 3 15-1 2-2 4-4 3l-5-6c-4-8-10-15-16-22 0 4 1 10-1 13-1 4-4 6-8 6-5 0-10-4-14-7l-13-5c-2 1-4 3-6 2l-11-2-20-2-18 2c3-4 8-6 13-8 10-5 21-5 32-4 3 1 6-2 10-1 10 0 17 4 25 10l-4-19c-1-4 1-9 6-10ZM637 383c3 1 5 2 5 5 0 4-3 8-5 13 4-2 7-5 11-5 3 1 4 3 6 6 5-2 12-4 18-2 3 1 4 3 5 5-3 3-6 5-10 6-5 2-11 4-16 4-3 0-5-2-7-3l-10 6c-3 0-6-1-7-4l-1-8-8 15-4 6c-2 0-3 0-4-2-2-3 1-8 2-11 3-8 8-16 14-23 3-3 6-7 11-8Z" fill="#000000"/><path d="M609 602c1 9-4 16-9 23-4 3-9 6-15 6s-13-3-19-5c-4-2-8-3-11-6l5-4c9-1 17 3 25 4 4 0 7-3 9-6 5-5 9-10 15-12Z" fill="#000000"/><path fill-rule="evenodd" clip-rule="evenodd" d="M438 634c-4 6-11 11-19 13 0-4 3-7 6-9 4-3 8-5 13-4Zm14 12 32 5 24 6c15 4 29 8 44 10 10 1 20 0 29-1 12-2 23-4 36-1 6 2 11 6 15 11 3 5 4 10 2 16s-7 13-13 17c-7 5-15 6-24 7l-30 3-29-2-21-5-10-3-12-3-14-4-23-8-17-10c-7-5-10-15-8-23 2-9 10-15 19-15Zm4 9-9 1c-4 1-7 4-8 8 0 3 2 6 3 8v1l8 8 4 2c0-9 0-19 4-27l-2-1Zm9 2a703 703 0 0 1 40 10c-2 11-5 22-4 33l-22-6-14-5-4-2 4-17v-13Zm87 20c-14-1-27-5-41-8a46 46 0 0 1-1 18c-1 5-2 10-5 14l9 2 13 4 17 3 5 1c-3-10 0-21 2-30l1-4Zm54-5c4 0 8 0 12 2 3 1 6 5 8 8 1 2 2 5 1 8-3 5-7 10-12 13s-10 4-16 5l-2 1 7-18 2-19Zm-13 25 5-25-15 3-23 2c0 10-2 19-5 29l-2 5a135 135 0 0 0 35-1l4-1 1-12Z" fill="#000000"/><path d="M449 200a185 185 0 0 1 66 17c12-11 28-13 43-11 11 2 21 7 29 13 8 7 18 14 23 24 10-1 22-1 32 3 8 4 14 10 20 17 5 5 10 12 12 19l1 12 17 3 12-1c4 0 6 4 6 7 1 6-1 12-2 18-5 15-15 27-27 36-16 11-36 17-55 19-25 3-51 2-76-5l10 15c1 3 4 5 4 8 1 3-2 6-5 6-8 0-16-2-23-4-13-3-25-8-38-13l-52-27c-7-4-13-8-19-14 0 6 0 11-2 16-1 3-3 6-6 4l-15-10a97 97 0 0 0-41-21l7 9c-6 7-14 10-22 15l-26 16c-4 3-9 7-11 12s-2 12-1 17c1 11 4 21 8 32 1 3 2 7 0 10l-8 10c-3 5-6 9-8 15v22c2 15 6 30 10 45l7 20c7 4 15 8 19 16-9 1-16-2-24-5l20 16c4 5 9 10 11 16-12-4-22-10-32-17-7-4-15-8-18-16l2-3c2-2 4-1 6-2-5-2-8-6-12-9-9-5-18-11-28-15-8-3-17-6-25-11-3-2-6-4-8-8-4-8-6-16-7-24a324 324 0 0 1 10-112c3-11 8-21 12-31 8-17 18-33 31-46l15-9c-1-9 4-16 10-23 9-10 21-18 33-23 13-5 26-9 39-9 2-7 6-12 10-17 7-9 18-15 29-18 12-4 25-4 37-4ZM311 585c3 0 6 2 8 3 6 5 13 11 16 18l-15-9-10-7c-1-2 0-4 1-5Z" fill="#000000"/></g><g transform="translate(10 -60)"></g></g></svg>