<svg xmlns="http://www.w3.org/2000/svg" viewBox="0 0 980 980" fill="none" shape-rendering="auto"><metadata xmlns:rdf="http://www.w3.org/1999/02/22-rdf-syntax-ns#" xmlns:xsi="http://www.w3.org/2001/XMLSchema-instance" xmlns:dc="http://purl.org/dc/elements/1.1/" xmlns:dcterms="http://purl.org/dc/terms/"><rdf:RDF><rdf:Description><dc:title>Lorelei</dc:title><dc:creator>Lisa Wischofsky</dc:creator><dc:source xsi:type="dcterms:URI">https://www.figma.com/community/file/1198749693280469639</dc:source><dcterms:license xsi:type="dcterms:URI">https://creativecommons.org/publicdomain/zero/1.0/</dcterms:license><dc:rights>Remix of „Lorelei” (https://www.figma.com/community/file/1198749693280469639) by „Lisa Wischofsky”, licensed under „CC0 1.0” (https://creativecommons.org/publicdomain/zero/1.0/)</dc:rights></rdf:Description></rdf:RDF></metadata><mask id="viewboxMask"><rect width="980" height="980" rx="490" ry="490" x="0" y="0" fill="#fff" /></mask><g mask="url(#viewboxMask)"><rect fill="#94a3b8" width="980" height="980" x="0" y="0" /><g transform="translate(10 -60)"><path d="M501 141c6-1 11 0 17 1 7 2 12 7 18 11 6 6 9 13 10 21 2-6 3-13 7-18 4-4 9-6 14-7 6-2 13-3 20-3 7 1 14 2 19 6 4 4 5 9 6 14l4 22c5-6 10-13 16-18 6-6 15-8 23-8 9 0 15 3 23 7 6 3 12 11 11 18 0 6-2 11-3 17 4-2 8-3 12-2 7 1 13 5 16 11 4 14 1 29-5 42 7-1 14 0 20 3 5 2 9 6 11 11 1 6-1 12-5 16-5 8-12 15-20 21 3 3 7 6 9 11s2 12-3 16c-3 4-8 5-12 6-13 4-26 6-39 4s-25-7-36-13l-5-6c-17 3-36 3-54 4-23 1-45 0-68-1l-51-4-43-4c-3 0-5 2-8 3-13 7-26 12-38 21l-14 13c-2 5-1 10 0 14 1 7 3 14 0 20l-11 13c-9 13-16 28-18 43-2 20 0 39 2 58 1 5-1 10-2 15l-7 8c4-1 9-3 12 1 0 4-5 7-8 9l10-2 6 2c-1 7-7 9-12 13 3 3 5 4 3 8-5 6-11 10-18 13l-7 2c-2-1-2-4-3-6l-22 6c-3 1-7 2-10 1l-5-6a203 203 0 0 1-27-123c1-23 6-46 14-68l-7-8c-4-5-5-12-7-17-3-9-4-18-1-27 2-6 6-11 11-16-3-3-7-6-9-10-3-7-2-14-2-21 1-6 3-13 8-17 5-3 11-2 17-2-3-6-7-13-5-20 1-6 6-12 10-16 6-7 14-12 24-11 9 0 17 5 25 8l-3-15c0-9 2-17 7-24 5-6 12-9 20-11 15-5 33 6 38 21 1-14 10-30 24-35 5-2 10-2 15-1 2-4 5-7 8-9 9-4 19-4 28-3 5 1 9 3 13 6 7 4 10 14 15 20 1-7 2-14 6-20 3-6 10-8 16-8Z" fill="#000000"/><path d="M495 231a231 231 0 0 1 219 204c1 10 2 21 0 30-1 4-1 7-4 8-3-10-3-19-4-29a220 220 0 0 0-239-205c-42 4-83 19-117 44l-17 13a221 221 0 0 0-78 164c0 23 7 43 15 64h17c3 1 4 4 2 6l-6 2c-15 1-31 7-42 17-8 9-14 19-16 31-3 15 0 32 8 45 9 15 24 27 40 33 14 5 29 7 43 5 4-1 8-2 11 0v3c-5 5-11 6-18 7-16 3-33-1-47-8a86 86 0 0 1-47-58c-4-18-1-37 9-53 8-12 20-21 34-26-7-14-10-28-12-43-2-18-2-35 0-53 1-13 4-25 8-38a227 227 0 0 1 99-122c41-28 92-43 142-41Z" fill="#000"/><path d="M535 244a220 220 0 0 1 171 200c1 10 1 19 4 29l-2 18v22c-3 4-4 9-4 14-2 8-2 15-2 23v65c0 21-3 42-11 61-4 13-10 24-18 35-10 12-21 22-34 31-11 9-24 17-37 24l-22 14-12 8 9-2c-3 11-3 24-4 36 0 8 1 16 7 22a235 235 0 0 0 81 45c6 7 11 16 13 25 1 9 0 18-4 27-6 10-14 18-23 24-13 10-28 17-43 22a417 417 0 0 1-217 11c-16-3-33-9-48-17-10-5-21-12-28-21-6-6-10-14-11-22-2-10 0-21 5-30 21-13 39-32 49-54 5-11 7-22 8-34 1-16 0-32-1-47-2-20-3-41-8-61 11 12 23 24 37 32 17 11 36 20 55 26 20 7 41 13 63 18l25 3c3 0 6 0 8-2 2-1 1-2 2-3l-17-2c-29-7-58-16-87-27-18-7-36-15-53-27-18-13-33-30-47-47l-11-16-1-1v-3c-3-2-7-1-11 0-14 2-29 0-43-5-16-6-31-18-40-33-8-13-11-30-8-45 2-12 8-22 16-31 11-10 27-16 42-17l6-2c2-2 1-5-2-6h-17c-8-21-15-41-15-64-1-14 2-27 5-41a221 221 0 0 1 73-123l17-13a230 230 0 0 1 185-39Z" fill="#ffffff"/><path d="M708 513c3 3 2 7 3 12v29c0 26 2 54 0 80-3 31-14 63-36 86-25 28-57 51-93 64l2 7v35c1 6 4 10 8 14l26 19 32 20 24 12c2 0 3 1 5 3l-19-5c-19-6-37-14-54-25-9-5-19-12-26-20-6-6-7-14-7-22 1-12 1-25 4-36l-9 2 12-8 22-14c13-7 26-15 37-24 13-9 24-19 34-31a178 178 0 0 0 29-96v-65c0-8 0-15 2-23 0-5 1-10 4-14ZM278 574c5 5 4 14 0 19l-3 7c1 3 5 5 7 6 6 3 12 7 19 9 0 4-3 5-7 5-6-1-13-3-18-6-7-3-13-8-13-16 0-6 5-9 6-14 2-4 0-7-1-11 4-1 7-2 10 1ZM328 667l11 16c14 17 29 34 47 47 17 12 35 20 53 27a714 714 0 0 0 104 29c-1 1 0 2-2 3-2 2-5 2-8 2l-25-3a478 478 0 0 1-118-44c-14-8-26-20-37-32 5 20 6 41 8 61 1 15 2 31 1 47-1 12-3 23-8 34-10 22-28 41-49 54l-14 8c2-4 6-6 9-9 13-11 24-25 34-39 6-10 12-21 14-33 4-19 3-39 3-58l-3-59 2-10c-10-11-19-26-22-41Z" fill="#000"/><path d="M679 466c8 3 13 11 15 19 1 5 2 11 1 17 0 3-1 7-4 9-4 2-8 1-10-3-3-4-2-10-3-15s-4-11-9-13c-8-2-13 1-19 5 4 8 4 16 3 24 0 8-1 15-4 23l-4 9c-1 4-4 7-8 8s-8-2-10-5c-3-4-5-9-5-14-2 4-3 9-6 12-3-2-3-7-4-10 0-13 6-27 13-38s17-22 29-27c8-4 17-5 25-1ZM482 474c18 8 33 24 39 44 2 6 4 13 2 19-1 2-2 3-4 2-3-3-5-8-7-12-8-14-18-28-33-36-10-6-22-8-34-5l5 10c3 6 3 12 3 18 0 8-1 15-3 23-2 6-6 12-10 17-3 3-6 5-10 5-5 0-9-2-12-6-5-8-6-18-6-27 0-7 2-14 4-21l-6 8c-3 4-10 4-13 0-3-3-3-8-1-12 8-12 19-22 32-28 17-7 37-7 54 1Z" fill="#000000"/><path d="M658 387c7 1 14 2 20 5l6 5c-8 5-18 8-28 8h-17l-16 2c-6 1-10 7-13 12-6 11-8 25-10 37-4-3-3-8-3-12 0-14 2-29 10-41 4-6 10-13 17-14 11-3 23-3 34-2ZM533 426c6-1 12 0 17 3 2 0 2 1 2 3l-8 8c-3 3-8 4-12 6l-18 3-47 3c-14 1-28 1-41 4-14 4-26 10-37 18l-9 8c-1-2-1-4 1-6 3-6 9-12 14-17 16-12 35-19 55-22l69-7c5 0 9-3 14-4Z" fill="#000000"/><path d="M603 613v1c-4 8-11 15-20 18-3 1-7 1-9-1v-4c7-5 16-9 24-12l5-2Z" fill="#000000"/><path fill-rule="evenodd" clip-rule="evenodd" d="M654 667c2-4 0-9-4-10-8-2-16-1-24-1l-57 6a445 445 0 0 1-56 5l-21 1a255 255 0 0 1-34-1c-4-1-8-1-12 1h1c0 2 1 3 3 3 8 3 16 4 25 5 1 4 3 7 7 9l11 7a503 503 0 0 1 5 3l23 10a175 175 0 0 0 31 8c7 2 14 3 22 2l21-5c6-2 12-5 17-9a129 129 0 0 0 26-23l8-8c3 0 6 0 8-3Zm-30 9 8-9a207 207 0 0 0-78 4l-4 1c-22 3-45 6-67 5l5 2 20 8c17 8 35 13 53 17 15 2 30-2 43-8 8-5 14-12 20-20Z" fill="#000000"/><path d="M502 141c9 0 18 0 25 6 6 4 12 8 15 14l4 13c2-6 3-14 8-19 5-4 11-6 17-7 8-2 17-2 25-1 5 1 9 4 12 8 3 3 4 8 4 12l4 21 13-16c10-10 27-13 40-7 5 2 10 4 14 8s7 8 6 14c0 6-2 11-3 17 4-2 8-3 12-2 7 1 13 5 16 11 4 14 1 29-5 42 7-1 14 0 20 3 5 2 9 6 11 11 1 6-1 12-5 16-5 8-12 15-20 21 4 4 8 8 10 14 1 6-1 12-6 15-7 5-17 6-25 7-3 0-8 1-9-3 0-2 2-3 4-4-4-4-8-7-10-11l-5-8 1-6-7-1-20 10c-23 8-48 8-71 9-33 1-66 0-99-3l-65-6c-3 0-5 2-8 3-13 7-26 12-38 21l-14 13c-2 5-1 10 0 14 1 7 3 13 1 20l-6 6c-5 4-8 9-11 15-6 9-10 19-12 30-4 20-1 43 1 63 1 5-1 10-2 15l-7 8c4-1 9-3 12 1 0 4-5 7-8 9l10-2 6 2c-1 7-7 9-12 13l3 4c1 2 0 4-1 5-5 6-11 10-18 13-2 1-5 2-7 0s-1-5-1-7c-2 0-4 1-6-1-2-4 1-8 3-11h-6v-5l5-7c-5 2-9 3-14 1l-34-22c-2-1-5-2-6-5l-4-11a259 259 0 0 1 11-127l-7-8c-4-5-5-12-7-18-3-9-5-17-1-26 2-7 6-11 11-16-4-3-7-7-9-12-3-6-2-14-2-20 1-6 3-13 8-16s11-2 17-2c-3-6-6-12-5-19 0-6 5-12 9-16 6-8 15-13 25-12 9 0 17 5 25 8-2-5-4-10-3-15 0-9 2-17 7-24 6-8 17-12 27-12 13 0 26 9 31 22 1-15 10-30 24-35 5-2 10-2 15-1 2-4 5-7 8-9 9-4 19-4 28-3 5 1 9 3 13 6 7 4 10 14 15 20 1-7 2-14 6-20s10-8 17-8Z" fill="#000000"/></g><g transform="translate(10 -60)"></g></g></svg>